<?xml version="1.0" standalone="no"?>
<!DOCTYPE svg PUBLIC "-//W3C//DTD SVG 20010904//EN"
 "http://www.w3.org/TR/2001/REC-SVG-20010904/DTD/svg10.dtd">
<svg version="1.0" xmlns="http://www.w3.org/2000/svg"
 width="399.000000pt" height="299.000000pt" viewBox="0 0 399.000000 299.000000"
 preserveAspectRatio="xMidYMid meet">

<g transform="translate(0.000000,299.000000) scale(0.100000,-0.100000)"
fill="#000000" stroke="none">
<path d="M484 2679 c-45 -13 -90 -64 -103 -114 -8 -30 -11 -304 -11 -869 l0
-826 1620 0 1620 0 -2 859 c-3 850 -3 860 -24 887 -11 15 -33 37 -48 48 -27
21 -29 21 -1524 23 -880 1 -1510 -2 -1528 -8z m750 -154 l7 -35 1038 0 c571 0
1079 -3 1129 -6 l92 -7 0 -728 0 -729 -1490 0 -1490 0 0 735 0 735 30 0 c24 0
31 5 36 28 4 15 9 30 11 35 2 4 145 7 317 7 l314 0 6 -35z m2220 -21 c5 -14 4
-15 -9 -4 -17 14 -19 20 -6 20 5 0 12 -7 15 -16z"/>
<path d="M1963 795 c-38 -16 -53 -42 -53 -90 0 -87 116 -120 155 -44 42 81
-24 167 -102 134z"/>
</g>
</svg>
